<?xml version="1.0" encoding="UTF-8"?>
<svg id="_图层_1" data-name="图层 1" xmlns="http://www.w3.org/2000/svg" viewBox="0 0 16 16">
  <defs>
    <style>
      .cls-1 {
        fill: #fc7f7f;
      }
    </style>
  </defs>
  <path class="cls-1" d="M8,15c-1.82,0-3.65-.71-5.02-2.11C.29,10.12.35,5.68,3.12,2.98c1.34-1.3,3.1-2.03,4.98-1.98,1.87.02,3.62.78,4.92,2.12h0c2.69,2.77,2.63,7.21-.13,9.9-1.36,1.32-3.12,1.98-4.88,1.98ZM8,2c-1.57,0-3.06.6-4.18,1.7-2.37,2.31-2.42,6.11-.11,8.48,2.31,2.37,6.11,2.42,8.48.11,2.37-2.31,2.42-6.11.11-8.48-1.12-1.15-2.62-1.79-4.22-1.81-.03,0-.05,0-.08,0Z"/>
  <path class="cls-1" d="M8.1,10.9s-.09,0-.14,0c-2.97-.04-5.28-1.35-5.26-2.97.02-1.63,2.36-2.87,5.34-2.83,2.97.04,5.28,1.34,5.26,2.97-.02,1.6-2.29,2.83-5.2,2.83ZM7.9,6.1c-2.47,0-4.18.96-4.2,1.84-.01.9,1.74,1.92,4.27,1.96,2.56.08,4.31-.94,4.33-1.84h.5s-.5,0-.5,0c.01-.9-1.74-1.92-4.27-1.96-.04,0-.09,0-.13,0Z"/>
  <path class="cls-1" d="M7.95,13.3h-.02c-.84-.01-1.59-.62-2.12-1.71-.47-.98-.73-2.27-.71-3.63.04-2.96,1.33-5.26,2.95-5.26h.02c.84.01,1.59.62,2.12,1.71.47.98.73,2.27.71,3.63-.04,2.96-1.33,5.26-2.95,5.26ZM8.05,3.7c-.9,0-1.91,1.75-1.95,4.27-.02,1.21.2,2.33.61,3.18.35.72.8,1.14,1.23,1.15.92.01,1.92-1.74,1.96-4.27.02-1.21-.2-2.33-.61-3.18-.35-.72-.8-1.14-1.23-1.15h0Z"/>
  <circle class="cls-1" cx="8" cy="8" r="1"/>
</svg>